<?xml version="1.0" encoding="utf-8"?>
<!-- Generator: Adobe Illustrator 27.5.0, SVG Export Plug-In . SVG Version: 6.00 Build 0)  -->
<svg version="1.1" xmlns="http://www.w3.org/2000/svg" xmlns:xlink="http://www.w3.org/1999/xlink" x="0px" y="0px"
	 viewBox="0 0 750 500" style="enable-background:new 0 0 750 500;" xml:space="preserve">
<g id="BACKGROUND">
	<rect style="fill:#FBF8F4;" width="750" height="500"/>
</g>
<g id="OBJECTS">
	<g>
		<defs>
			<rect id="SVGID_1_" width="750" height="500"/>
		</defs>
		<clipPath id="SVGID_00000039096626645750563690000004777797235208708028_">
			<use xlink:href="#SVGID_1_"  style="overflow:visible;"/>
		</clipPath>
		<g style="clip-path:url(#SVGID_00000039096626645750563690000004777797235208708028_);">
			<g>
				<g>
					<path style="fill:#F3D5CB;" d="M43.601,193.836c63.099,59.762,113.519,127.784,208.32,133.93
						c147.013,8.986,164.112-181.305,105.15-279.378C347.992,31.557,337.86,15.325,326.383,0C326.383,0,0,0,0,0v162.716
						C15.781,171.091,30.234,182.143,43.601,193.836z"/>
					<path style="fill:#D8A192;" d="M406.845,454.248c-62.561-70.67-172.396-26.175-249.293-68.141
						C97.892,355.532,70.438,275.588,0,264.799V500h428.192C423.889,483.616,417.325,467.647,406.845,454.248z"/>
					<path style="fill:#E8B8A5;" d="M444.124,9.656c8.185,88.939,90.952,125.795,152.96,174.714
						C658.453,231.988,681.948,316.741,750,355.8V0H442.675C443.103,3.226,443.577,6.446,444.124,9.656z"/>
					<path style="fill:#8EB7C5;" d="M106.393,181.893C282.037,394.492,437.266,196.87,311.265-0.002C311.268,0,0,0,0,0v86.242
						C41.992,109.476,74.142,146.901,106.393,181.893z"/>
					<path style="fill:#A0442E;" d="M533.776,58.219c62.122,45.156,141.162,58.147,216.224,62.378V0H481.199
						C494.505,22.764,512.405,42.506,533.776,58.219z"/>
					<path style="fill:#D6EBE6;" d="M68.015,85.203l-34.529,234.67c0,0,81.207,36.355,104.866-81.574S68.015,85.203,68.015,85.203z"
						/>
				</g>
				<path style="fill:#803724;" d="M204.54,361.718c22.779,20.323,6.814,45.399-12.611,61.385
					c-19.425,15.986-46.281,26.856-66.103,0c-19.822-26.856,1.918-49.876,23.019-61.385
					C169.947,350.209,187.339,346.372,204.54,361.718z"/>
			</g>
			<path style="fill:#803724;" d="M678.277,229.76c0.056-0.691-0.787-1.192-1.281-0.589c-16.562,20.241-32.37,44.741-31.817,71.742
				c-0.104-0.577-0.219-1.149-0.32-1.727c-2.262-13.034-3.679-26.149-4.753-39.306c0.066-0.056,0.131-0.114,0.183-0.197
				c6.392-10.394,12.893-21.34,13.334-33.871c0.254-7.202-1.197-14.425-2.226-21.522c-1.173-8.095-2.346-16.189-3.52-24.284
				c-0.107-0.742-1.221-0.853-1.352-0.06c-2.525,15.305-10.898,28.663-14.564,43.628c-2.771,11.311-2.562,25.973,6.562,34.495
				c0.757,20.467,2.878,41.074,7.16,61.105c-4.223-8.203-9.855-15.666-16.642-21.987c-11.268-10.495-26.516-14.948-37.64-25.427
				c-0.509-0.479-1.485,0.172-1.153,0.822c12.557,24.587,26.574,62.541,59.641,63.537c0.349,1.227,0.696,2.453,1.064,3.674
				c4.675,15.535,11.16,30.501,19.536,44.404c0.938,1.558,1.91,3.091,2.9,4.612c-6.535-6.602-13.466-12.806-20.793-18.538
				c-5.934-4.643-12.104-8.98-18.479-12.996c-6.772-4.266-13.9-7.963-18.826-14.473c-0.477-0.63-1.666-0.088-1.285,0.684
				c13.495,27.339,34.381,65.017,70.637,61.035c5.337,6.963,10.863,13.791,16.09,20.837c5.409,7.291,10.442,14.895,14.683,22.876
				c-7.762-9.919-21.236-13.399-32.228-19.142c-0.622-0.325-1.2,0.478-0.833,1.012c8.413,12.264,19.711,27.261,36.54,25.173
				c3.726,8.163,6.548,16.717,8.052,25.729c0.046,0.276,0.47,0.246,0.438-0.038c-2.411-21.54-13.137-40.295-25.297-58.086
				c0.154-0.069,0.295-0.182,0.387-0.38c12.492-27.04,3.606-57.107,1.401-85.267c-0.06-0.767-1.12-0.923-1.443-0.251
				c-12.379,25.68-16.613,57.634-1.604,83.144c0.038,0.362,0.071,0.725,0.111,1.086c-6.266-9.076-12.849-17.917-18.833-26.76
				c-5.491-8.115-10.37-16.516-14.685-25.16c-0.21-0.86-0.401-1.72-0.58-2.58c0.005-0.012,0.013-0.018,0.018-0.03
				c0.025-0.069,0.045-0.141,0.069-0.211c8.752-8.406,14.85-19.181,17.354-31.098c1.352-6.438,1.54-12.992,0.753-19.515
				c-0.988-8.177-2.922-16.128-1.45-24.386c0.157-0.879-0.992-1.125-1.402-0.437c-12.606,21.154-22.208,47.644-17.604,72.348
				c-8.153-17.583-14.052-36.117-18.005-55.279C672.113,290.774,675.989,258.044,678.277,229.76z M647.106,183.996
				c2.037,12.896,4.846,26.129,5.125,39.096c0.273,12.702-5.906,23.743-12.332,34.26c-0.413-5.267-0.779-10.54-1.121-15.818
				c-0.025-0.389-0.597-0.328-0.596,0.051c0.019,4.91,0.116,9.84,0.28,14.778C621.846,233.099,641.493,208.222,647.106,183.996z
				 M593.244,275.298c9.974,8.1,22.555,12.397,32.391,20.827c9.572,8.203,16.832,18.501,21.635,30.008
				c0.369,1.529,0.75,3.055,1.144,4.576c-6.765-6.127-13.662-12.174-20.642-18.039c-0.074-0.062-0.159,0.048-0.094,0.114
				c7.016,7.092,14.232,14.076,21.527,20.882c0.001,0.001,0.003,0.001,0.005,0.003c0.133,0.488,0.258,0.978,0.394,1.465
				C618.376,331.418,605.715,300.382,593.244,275.298z M684.967,431.5c10.77,5.185,23.551,8.85,30.383,18.947
				c-6.382-4.051-13.124-7.454-20.151-10.288c-0.13-0.052-0.218,0.137-0.091,0.198c7.599,3.695,14.83,7.992,21.815,12.729
				c0.193,0.374,0.38,0.754,0.558,1.144c0.009,0.02,0.024,0.029,0.034,0.047C702.654,454.511,692.894,442.835,684.967,431.5z
				 M702.594,340.186c2.315,26.147,9.468,53.292-0.324,78.538c-0.484-16.561-1.518-33.017-1.371-49.62
				c0.002-0.158-0.269-0.172-0.279-0.012c-0.95,16.057-1.499,32.729-0.017,48.828C688.957,392.74,691.158,365.169,702.594,340.186z
				 M679.03,397.004c0.432,0.598,0.873,1.19,1.31,1.785c-20.067-9.203-35.283-23.72-51.29-38.803
				c-0.023-0.022-0.062,0.014-0.041,0.038c14.767,16.311,31.952,34.097,53.297,41.411c0.525,0.699,1.049,1.399,1.579,2.094
				c-33.647,1.049-52.567-29.016-66.149-55.843c3.152,2.995,6.776,5.415,10.539,7.742c7.062,4.368,13.971,8.887,20.586,13.915
				C659.755,377.625,669.826,386.898,679.03,397.004z M681.675,294.828c-0.97,11.973,3.441,23.848,1.802,35.948
				c-1.643,12.125-7.102,23.406-15.438,32.27c2.319-7.743,3.56-16.024,5.058-23.883c1.868-9.797,3.844-19.645,5.236-29.522
				c0.02-0.139-0.186-0.175-0.214-0.038c-1.987,9.479-3.713,18.985-5.913,28.422c-1.912,8.201-4.537,16.475-6.07,24.79
				C662.446,339.322,669.634,315.937,681.675,294.828z M676.628,231.853c-2.471,26.944-6.368,57.189-29.918,74.077
				c6.422-12.174,11.866-25.233,15.634-38.459c0.011-0.038-0.052-0.058-0.067-0.021c-4.715,12.31-9.906,24.138-16.013,35.773
				C646.591,276.151,659.374,252.334,676.628,231.853z"/>
			<path style="fill:#D6EBE6;" d="M281.025,92.417c-6.767-20.937-19.057-40.086-31.565-58.013
				c-12.784-18.322-27.234-35.433-43.115-51.143c-0.457-0.452-1.163,0.253-0.706,0.706c27.183,26.914,52.137,58.39,68.321,93.256
				c8.176,17.613,13.854,38.021,8.849,57.351c-4.136,15.975-15.391,31.469-31.635,36.573c-18.961,5.958-38.62-4.841-54.814-13.798
				c-14.151-7.828-27.551-16.942-40.465-26.658c-26.435-19.888-50.863-42.265-76.783-62.797
				C51.608,46.105,22.116,26.452-11.716,16.122c-0.152-0.046-0.215,0.188-0.065,0.237c66.679,22.377,114.34,76.435,169.358,117.36
				c13.552,10.08,27.673,19.49,42.636,27.356c15.198,7.991,33.142,16.654,50.613,11.371c13.831-4.182,24.337-15.863,29.909-28.857
				C287.757,127.214,286.409,109.073,281.025,92.417z"/>
			<path style="fill:#D6EBE6;" d="M257.043,83.102c-16.72-34.054-41.995-62.904-68.856-89.32c-0.517-0.508-1.313,0.287-0.795,0.795
				c22.974,22.575,44.836,46.76,61.171,74.674c8.663,14.804,17.625,31.596,18.218,49.103c0.523,15.453-7.64,32.392-23.949,35.74
				c-17.601,3.613-36.135-6.844-50.531-15.726c-13.27-8.187-26.074-17.126-38.669-26.309c-24.901-18.155-48.958-37.45-74.137-55.227
				C51.912,37.358,22.761,19.764-9.214,8.508c-0.21-0.074-0.297,0.256-0.091,0.332c62.761,23.204,113.038,68.308,166.546,106.9
				c13.681,9.867,27.616,19.684,42.339,27.951c12.931,7.262,29.153,14.603,44.314,11.092c12.443-2.882,20.577-14.142,23.027-26.204
				C270.112,112.858,263.861,96.987,257.043,83.102z"/>
			<path style="fill:#F3D5CB;" d="M768.841,140.567c-24.672,1.328-49.053,1.886-73.673-0.825
				c-24.333-2.679-48.395-7.955-71.55-15.917c-42.327-14.555-81.469-38.438-112.994-70.298C493.281,36,478.547,16.116,466.453-5.358
				c-0.042-0.075-0.155-0.009-0.115,0.067c42.731,81.816,129.048,132.876,218.791,145.444c27.47,3.847,56.139,5.066,83.712,1.504
				C769.515,141.57,769.56,140.529,768.841,140.567z"/>
			<path style="fill:#F3D5CB;" d="M778.539,176.717c-104.207,3.061-209.474-34.604-277.793-115.496
				c-17.568-20.8-32.227-44.021-43.509-68.8c-0.032-0.07-0.133-0.009-0.103,0.06c40.697,93.762,130.849,157.544,229.474,177.855
				c30.204,6.221,61.127,8.634,91.931,7.344C779.156,177.654,779.161,176.699,778.539,176.717z"/>
			<path style="fill:#E8B8A5;" d="M415.448,512.807c-11.5-30.631-33.074-60.549-62.05-76.743
				c-32.821-18.343-72.8-15.828-109.04-14.874c-34.856,0.917-72.028,0.771-103.296-16.869c-30.63-17.28-43.073-50.896-65.13-76.462
				c-23.323-27.033-54.89-47.868-89.37-57.47c-0.092-0.026-0.129,0.113-0.039,0.142c31.427,10.355,59.92,27.514,82.664,51.702
				c11.577,12.313,20.643,26.263,29.827,40.372c8.403,12.91,17.354,25.661,29.611,35.23
				c58.247,45.471,137.411,11.505,202.877,30.714c39.629,11.628,68.339,47.177,82.78,84.581
				C414.558,513.845,415.723,513.54,415.448,512.807z"/>
			<g>
				<path style="fill:#F3D5CB;" d="M37.224,434.063c-0.942-1.657-2.37-2.92-3.621-4.335c-1.296-1.465-2.561-2.972-3.789-4.495
					c-0.417-0.517-1.37,0.04-1.131,0.658c1.347,3.484,3.649,7.837,7.134,9.579C36.715,435.919,37.754,434.996,37.224,434.063z"/>
				<path style="fill:#F3D5CB;" d="M54.699,451.507c-1.542-1.832-3.523-3.052-5.426-4.462c-2.143-1.587-4.265-3.231-6.21-5.057
					c-0.552-0.518-1.612,0.194-1.104,0.852c3.05,3.956,6.786,8.856,11.86,10.181C54.742,453.261,55.262,452.176,54.699,451.507z"/>
				<path style="fill:#F3D5CB;" d="M74.823,464.586c-3.699-2.331-7.833-3.699-11.427-6.248c-1.028-0.729-2.308,0.923-1.353,1.753
					c3.486,3.029,7.536,6.008,12.288,6.313C75.343,466.469,75.594,465.072,74.823,464.586z"/>
				<path style="fill:#F3D5CB;" d="M93.253,472.845c-3.196-1.252-6.5-2.177-9.773-3.199c-1.038-0.324-1.759,1.296-0.752,1.783
					c3.204,1.55,6.365,3.179,9.674,4.501C94.31,476.691,95.156,473.59,93.253,472.845z"/>
				<path style="fill:#F3D5CB;" d="M36.976,452.846c-1.181-1.55-2.974-2.587-4.379-3.936c-1.608-1.543-2.993-3.268-4.194-5.144
					c-0.607-0.949-2.078-0.104-1.518,0.887c1.126,1.991,2.452,3.856,4.001,5.542c1.383,1.505,3.097,3.344,5.127,3.902
					C36.666,454.278,37.447,453.464,36.976,452.846z"/>
				<path style="fill:#F3D5CB;" d="M55.48,467.981c-3.007-2.296-6.615-3.982-9.875-5.896c-1.072-0.63-1.937,0.942-0.958,1.639
					c3.089,2.199,6.113,4.814,9.449,6.624C55.693,471.215,56.848,469.025,55.48,467.981z"/>
				<path style="fill:#F3D5CB;" d="M74.981,479.823c-0.663-1.816-2.543-2.111-4.221-2.812c-2.243-0.936-4.504-1.832-6.757-2.743
					c-0.871-0.353-1.415,1.043-0.63,1.494c2.005,1.152,4.003,2.318,6.018,3.452c1.533,0.863,3.14,2.338,4.945,1.745
					C74.78,480.812,75.159,480.31,74.981,479.823z"/>
				<path style="fill:#F3D5CB;" d="M53.718,434.293c-2.118-3.182-5.767-5.519-8.764-7.83c-0.909-0.701-2.018,0.798-1.214,1.574
					c2.652,2.558,5.477,5.797,8.848,7.387C53.271,435.745,54.216,435.042,53.718,434.293z"/>
				<path style="fill:#F3D5CB;" d="M69.933,447.815c-1.113-1.122-2.641-1.873-3.986-2.693c-1.455-0.887-2.933-1.695-4.457-2.454
					c-0.948-0.473-2.113,0.785-1.204,1.56c1.291,1.099,2.605,2.145,3.984,3.133c1.377,0.986,2.744,2.132,4.32,2.761
					C69.928,450.655,70.836,448.726,69.933,447.815z"/>
				<path style="fill:#F3D5CB;" d="M91.019,461.433c-3.279-1.98-6.653-3.807-10.032-5.61c-0.794-0.424-1.781,0.687-1.012,1.311
					c3.054,2.48,6.132,4.942,9.314,7.258C91.048,465.673,92.936,462.591,91.019,461.433z"/>
			</g>
			<g>
				<path style="fill:#F3D5CB;" d="M661.2,64.79c-0.939,1.543-1.692,3.051-3.023,4.321c-1.364,1.301-3.004,2.229-4.735,2.95
					c-0.925,0.385-0.592,1.674,0.416,1.509c4.016-0.658,8.307-3.872,9.56-7.845C663.838,64.391,661.904,63.635,661.2,64.79z"/>
				<path style="fill:#F3D5CB;" d="M674.505,48.53c-1.505,0.539-2.336,2.115-3.287,3.34c-1.078,1.387-2.189,2.749-3.289,4.118
					c-0.672,0.836,0.41,2,1.206,1.206c1.236-1.233,2.463-2.476,3.719-3.688c1.071-1.033,2.666-2.106,3.025-3.602
					C676.062,49.133,675.344,48.229,674.505,48.53z"/>
				<path style="fill:#F3D5CB;" d="M685.633,32.741c-1.566,0.707-2.453,2.59-3.55,3.856c-1.144,1.32-2.447,2.535-3.508,3.918
					c-0.612,0.798,0.536,1.692,1.287,1.287c1.659-0.895,3.128-2.363,4.408-3.726c1.218-1.296,2.711-2.62,2.871-4.469
					C687.213,32.773,686.255,32.461,685.633,32.741z"/>
				<path style="fill:#F3D5CB;" d="M694.228,18.698c-2.316,2.829-4.118,6.169-6.084,9.248c-0.632,0.99,0.859,1.775,1.533,0.896
					c2.166-2.823,4.664-5.593,6.483-8.653C696.854,19.023,695.134,17.592,694.228,18.698z"/>
				<path style="fill:#F3D5CB;" d="M659.343,49.449c-1.732,0.581-2.812,1.936-4.041,3.227c-1.357,1.426-2.677,2.884-4.007,4.335
					c-0.905,0.988,0.474,2.36,1.467,1.467c1.463-1.317,2.934-2.625,4.372-3.969c1.308-1.223,2.658-2.277,3.257-4.011
					C660.599,49.896,659.94,49.248,659.343,49.449z"/>
				<path style="fill:#F3D5CB;" d="M670.586,34.313c-1.375,0.924-2.308,2.493-3.318,3.789c-1.016,1.303-1.992,2.633-2.938,3.987
					c-0.566,0.811,0.639,1.618,1.311,1.012c1.229-1.108,2.431-2.242,3.601-3.413c1.087-1.087,2.486-2.153,3.183-3.534
					C672.988,35.039,671.782,33.51,670.586,34.313z"/>
				<path style="fill:#F3D5CB;" d="M681.901,19.601c-1.369,1.213-2.407,2.949-3.472,4.429c-1.16,1.612-2.333,3.221-3.32,4.946
					c-0.443,0.774,0.573,1.53,1.215,0.937c1.464-1.352,2.773-2.859,4.088-4.354c1.21-1.376,2.654-2.77,3.533-4.383
					C684.665,19.854,683.002,18.625,681.901,19.601z"/>
				<path style="fill:#F3D5CB;" d="M677.157,62.769c-1.693,0.317-2.945,2.084-4.099,3.253c-1.387,1.405-2.694,2.869-3.985,4.362
					c-0.786,0.908,0.379,2.01,1.293,1.293c1.558-1.222,3.09-2.46,4.565-3.782c1.234-1.105,3.017-2.247,3.416-3.937
					C678.525,63.202,677.885,62.633,677.157,62.769z"/>
				<path style="fill:#F3D5CB;" d="M686.984,47.689c-2.608,3.078-4.775,6.792-6.811,10.27c-0.533,0.911,0.786,2.014,1.505,1.161
					c2.58-3.063,5.39-6.348,7.404-9.812C689.821,48.036,687.99,46.501,686.984,47.689z"/>
				<path style="fill:#F3D5CB;" d="M696.564,33.441c-1.498,0.589-2.104,2.067-2.952,3.37c-0.948,1.458-1.905,2.91-2.864,4.361
					c-0.608,0.92,0.822,2.054,1.546,1.193c1.117-1.329,2.234-2.657,3.361-3.978c0.996-1.167,2.286-2.209,2.422-3.794
					C698.139,33.87,697.255,33.169,696.564,33.441z"/>
			</g>
			<path style="fill:#803724;" d="M678.418-14.687c-2.535,15.908-9.016,32.139-23.503,40.729
				c-6.449,3.824-14.099,5.917-21.612,5.086c-8.529-0.943-15.437-6.119-23.114-9.425c-5.615-2.417-12.158-3.998-18.118-1.869
				c-7.025,2.509-10.925,9.297-19.033,9.636c-18.456,0.772-26.802-18.099-29.235-33.416c-0.044-0.275-0.524-0.214-0.49,0.066
				c1.308,10.942,4.867,22.743,14.177,29.548c8.582,6.272,19.374,6.617,27.767,0.058c3.839-3,7.222-5.559,12.318-5.66
				c4.264-0.085,8.389,1.166,12.253,2.856c6.548,2.865,12.535,7.09,19.556,8.8c11.028,2.685,22.8-1.081,31.442-8.127
				c11.323-9.232,16.991-23.79,18.92-37.916C679.865-15.181,678.559-15.57,678.418-14.687z"/>
			<path style="fill:#803724;" d="M384.805,513.145c-6.496-32.193-34.704-56.496-67.704-57.111
				c-17.824-0.332-32.933,6.252-47.315,16.224c-7.799,5.408-16.056,11.3-25.764,12.361c-9.742,1.065-18.955-3.181-28.482-4.316
				c-18.115-2.157-26.574,12.193-31.963,27.214c-0.122,0.341,0.405,0.472,0.536,0.148c2.896-7.175,5.883-14.844,11.524-20.37
				c7.274-7.126,16.604-6.993,25.945-4.91c7.376,1.645,14.785,4.067,22.44,3.294c6.434-0.649,12.383-3.477,17.834-6.811
				c6.698-4.096,12.834-9.065,19.691-12.907c7.738-4.335,16.305-7.063,25.097-8.165c16.74-2.097,34.029,1.76,47.939,11.41
				c14.98,10.393,25.411,26.431,29.007,44.272C383.752,514.273,384.965,513.938,384.805,513.145z"/>
			<path style="fill:#D6EBE6;" d="M328.23,119.585c-3.751-25.809-13.365-50.399-23.945-74.086
				c-9.806-21.956-20.982-43.667-37.825-61.122c-0.517-0.535-1.327,0.278-0.815,0.815c14.866,15.612,25.384,34.425,34.397,53.863
				c9.507,20.504,18.333,41.633,23.621,63.665c9.332,38.882,5.661,82.604-24.59,111.7c-14.13,13.591-32.631,20.71-52.268,19.596
				c-22.313-1.266-42.763-11.82-60.293-25.085c-16.795-12.71-31.792-27.771-46.966-42.326
				c-14.647-14.049-29.243-28.159-44.356-41.711C63.011,96.04,27.306,68.154-13.928,53.695c-0.141-0.049-0.243,0.185-0.103,0.244
				c39.812,16.844,74.176,41.677,106.287,70.362c15.758,14.077,30.939,28.781,46.158,43.434
				c15.252,14.686,30.318,29.878,47.228,42.681c16.893,12.791,36.316,22.927,57.682,25.057c18.475,1.842,36.544-3.373,51.074-14.922
				C324.524,196.607,333.545,156.16,328.23,119.585z"/>
		</g>
	</g>
</g>
</svg>
